<?xml version="1.0" encoding="UTF-8" standalone="no"?>
<!DOCTYPE svg PUBLIC "-//W3C//DTD SVG 1.1//EN" "http://www.w3.org/Graphics/SVG/1.1/DTD/svg11.dtd">
<svg width="100%" height="100%" viewBox="0 0 157 157" version="1.1" xmlns="http://www.w3.org/2000/svg" xmlns:xlink="http://www.w3.org/1999/xlink" xml:space="preserve" xmlns:serif="http://www.serif.com/" style="fill-rule:evenodd;clip-rule:evenodd;stroke-linecap:round;stroke-linejoin:round;stroke-miterlimit:1.5;">
    <g transform="matrix(1,0,0,1,-1283.831791,-590.090145)">
        <g transform="matrix(0.721066,0,0,0.721066,924.332305,329.986553)">
            <path d="M715.87,432.431L715.87,506.314C715.87,545.892 683.738,578.024 644.16,578.024L570.277,578.024C530.699,578.024 498.567,545.892 498.567,506.314L498.567,432.431C498.567,392.853 530.699,360.721 570.277,360.721L644.16,360.721C683.738,360.721 715.87,392.853 715.87,432.431Z" style="fill:white;"/>
        </g>
        <g transform="matrix(0.36681,0,0,0.36681,416.028455,340.666122)">
            <path d="M2443,858C2443,858 2457.833,872.833 2463.996,878.996C2465.684,880.684 2467.973,881.632 2470.36,881.632C2496.14,881.632 2648.534,881.632 2703.794,881.632C2714.84,881.632 2723.794,872.678 2723.794,861.632C2723.794,826.478 2723.794,755.715 2723.794,738.728C2723.794,736.341 2722.846,734.052 2721.158,732.364C2715.105,726.311 2700.726,711.932 2700.726,711.932L2700,838C2699.897,850.153 2698,856 2687.766,857.96L2443,858Z" style="fill:white;stroke:black;stroke-width:8px;"/>
        </g>
        <g transform="matrix(0.202711,0,0,0.345164,860.323692,625.835277)">
            <path d="M2732.05,166.056C2735.214,167.858 2737,170.335 2737,172.923C2737,191.344 2737,267.964 2737,305.746C2737,311.383 2733.187,316.789 2726.4,320.775C2719.613,324.761 2710.408,327 2700.81,327L2478.746,327C2474.427,327 2470.284,325.992 2467.23,324.199C2456.021,317.616 2428.944,301.714 2428.944,301.714L2664.182,301.714C2683.14,301.671 2693.277,296.484 2693.944,285.773L2693.944,144.36C2693.944,144.36 2720.735,159.614 2732.05,166.056Z" style="fill:white;stroke:black;stroke-width:10.37px;"/>
        </g>
        <g transform="matrix(0.213784,0,0,0.36681,821.287587,610.029044)">
            <path d="M2737,184.532L2737,313.468C2737,320.936 2726.596,327 2713.782,327L2495.218,327C2482.404,327 2472,320.936 2472,313.468L2472,184.532C2472,177.064 2482.404,171 2495.218,171L2713.782,171C2726.596,171 2737,177.064 2737,184.532Z" style="fill:rgb(0,233,255);stroke:black;stroke-width:9.77px;"/>
        </g>
        <g transform="matrix(0.36681,0,0,0.36681,402.456488,535.442192)">
            <path d="M2737,184.668L2737,313.332C2737,320.876 2730.876,327 2723.332,327L2485.668,327C2478.124,327 2472,320.876 2472,313.332L2472,184.668C2472,177.124 2478.124,171 2485.668,171L2723.332,171C2730.876,171 2737,177.124 2737,184.668Z" style="fill:rgb(174,255,0);stroke:black;stroke-width:8px;"/>
        </g>
        <g transform="matrix(0.459712,0,0,0.872143,31.901045,400.58489)">
            <path d="M2792,348.042L2782.5,348.042C2780.292,348.042 2778.5,347.097 2778.5,345.933C2778.5,344.77 2780.292,343.825 2782.5,343.825L2792,343.825L2792,338.817C2792,337.654 2793.792,336.709 2796,336.709C2798.208,336.709 2800,337.654 2800,338.817L2800,343.825L2809.5,343.825C2811.708,343.825 2813.5,344.77 2813.5,345.933C2813.5,347.097 2811.708,348.042 2809.5,348.042L2800,348.042L2800,353.049C2800,354.213 2798.208,355.158 2796,355.158C2793.792,355.158 2792,354.213 2792,353.049L2792,348.042Z"/>
        </g>
        <g transform="matrix(1.974701,0,0,1.974701,-3694.357611,2365.220289)">
            <path d="M2549.802,-875.398C2551.545,-875.398 2552.641,-876.421 2552.726,-877.925L2551.013,-877.925C2550.906,-877.226 2550.446,-876.834 2549.824,-876.834C2548.976,-876.834 2548.426,-877.546 2548.426,-878.799C2548.426,-880.034 2548.98,-880.742 2549.824,-880.742C2550.489,-880.742 2550.915,-880.303 2551.013,-879.651L2552.726,-879.651C2552.649,-881.164 2551.503,-882.157 2549.794,-882.157C2547.808,-882.157 2546.581,-880.78 2546.581,-878.773C2546.581,-876.783 2547.787,-875.398 2549.802,-875.398Z" style="fill-rule:nonzero;"/>
        </g>
        <g transform="matrix(1.974701,0,0,1.974701,-3694.357611,2365.220289)">
            <path d="M2559.055,-882.071L2557.823,-882.071L2557.823,-883.64L2556.008,-883.64L2556.008,-882.071L2555.113,-882.071L2555.113,-880.708L2556.008,-880.708L2556.008,-877.299C2556,-876.016 2556.873,-875.381 2558.19,-875.436C2558.659,-875.453 2558.991,-875.547 2559.174,-875.607L2558.889,-876.958C2558.799,-876.941 2558.607,-876.898 2558.437,-876.898C2558.075,-876.898 2557.823,-877.034 2557.823,-877.537L2557.823,-880.708L2559.055,-880.708L2559.055,-882.071Z" style="fill-rule:nonzero;"/>
        </g>
        <g transform="matrix(1.974701,0,0,1.974701,-3694.357611,2365.220289)">
            <path d="M2561.915,-875.526L2563.731,-875.526L2563.731,-879.229C2563.731,-880.034 2564.319,-880.588 2565.12,-880.588C2565.371,-880.588 2565.716,-880.546 2565.887,-880.49L2565.887,-882.101C2565.725,-882.14 2565.499,-882.165 2565.316,-882.165C2564.583,-882.165 2563.982,-881.739 2563.743,-880.929L2563.675,-880.929L2563.675,-882.071L2561.915,-882.071L2561.915,-875.526Z" style="fill-rule:nonzero;"/>
        </g>
        <g transform="matrix(1.974701,0,0,1.974701,-3694.357611,2365.220289)">
            <rect x="2568.5" y="-884.253" width="1.815" height="8.727" style="fill-rule:nonzero;"/>
        </g>
        <g transform="matrix(1.974701,0,0,1.974701,-3662.700538,2439.807141)">
            <path d="M2549.399,-875.526L2551.244,-875.526L2551.244,-878.355L2552.796,-878.355C2554.803,-878.355 2555.97,-879.553 2555.97,-881.296C2555.97,-883.03 2554.824,-884.253 2552.842,-884.253L2549.399,-884.253L2549.399,-875.526ZM2551.244,-879.834L2551.244,-882.745L2552.489,-882.745C2553.554,-882.745 2554.07,-882.165 2554.07,-881.296C2554.07,-880.431 2553.554,-879.834 2552.497,-879.834L2551.244,-879.834Z" style="fill-rule:nonzero;"/>
        </g>
    </g>
</svg>
