<?xml version="1.0" encoding="UTF-8" standalone="no"?><!DOCTYPE svg PUBLIC "-//W3C//DTD SVG 1.1//EN" "http://www.w3.org/Graphics/SVG/1.1/DTD/svg11.dtd"><svg width="100%" height="100%" viewBox="0 0 203 69" version="1.1" xmlns="http://www.w3.org/2000/svg" xmlns:xlink="http://www.w3.org/1999/xlink" xml:space="preserve" xmlns:serif="http://www.serif.com/" style="fill-rule:evenodd;clip-rule:evenodd;stroke-linecap:round;stroke-linejoin:round;stroke-miterlimit:1.5;"><g><path d="M4.402,58.69c-0,-0 5.441,5.44 7.701,7.701c0.619,0.619 1.459,0.967 2.335,0.967l85.626,0c4.051,0 7.336,-3.284 7.336,-7.336c-0,-12.895 -0,-38.851 -0,-45.083c-0,-0.875 -0.348,-1.715 -0.967,-2.334c-2.221,-2.22 -7.495,-7.495 -7.495,-7.495l-0.266,46.243c-0.038,4.458 -0.734,6.603 -4.488,7.322l-89.782,0.015Z" style="fill:#fff;stroke:#000;stroke-width:2.93px;"/><path d="M200.464,11.866c0.641,0.621 1.003,1.477 1.003,2.37l0,45.845c0,1.946 -0.773,3.812 -2.148,5.188c-1.376,1.376 -3.242,2.149 -5.188,2.149l-45.015,-0c-0.875,-0 -1.715,-0.348 -2.334,-0.967c-2.272,-2.273 -7.761,-7.761 -7.761,-7.761l47.685,-0c3.843,-0.015 5.898,-1.806 6.033,-5.503l0,-48.81c0,-0 5.431,5.265 7.725,7.489Z" style="fill:#fff;stroke:#000;stroke-width:2.93px;"/><path d="M192.739,6.431l0,47.295c0,2.739 -2.224,4.964 -4.963,4.964l-46.726,-0c-2.739,-0 -4.964,-2.225 -4.964,-4.964l0,-47.295c0,-2.74 2.225,-4.964 4.964,-4.964l46.726,0c2.739,0 4.963,2.224 4.963,4.964Z" style="fill:#00e9ff;stroke:#000;stroke-width:2.93px;"/><path d="M98.672,6.481l-0,47.195c-0,2.767 -2.247,5.014 -5.014,5.014l-87.177,-0c-2.767,-0 -5.014,-2.247 -5.014,-5.014l0,-47.195c0,-2.767 2.247,-5.014 5.014,-5.014l87.177,0c2.767,0 5.014,2.247 5.014,5.014Z" style="fill:#aeff00;stroke:#000;stroke-width:2.93px;"/><path d="M118.846,32.595l-3.484,0c-0.81,0 -1.468,-0.657 -1.468,-1.467c0,-0.81 0.658,-1.467 1.468,-1.467l3.484,-0l0,-3.485c0,-0.81 0.658,-1.467 1.468,-1.467c0.809,0 1.467,0.657 1.467,1.467l-0,3.485l3.485,-0c0.809,-0 1.467,0.657 1.467,1.467c-0,0.81 -0.658,1.467 -1.467,1.467l-3.485,0l-0,3.485c-0,0.81 -0.658,1.467 -1.467,1.467c-0.81,0 -1.468,-0.657 -1.468,-1.467l0,-3.485Z"/><g><path d="M32.997,39.871c3.442,0 5.604,-2.019 5.772,-4.99l-3.382,0c-0.211,1.38 -1.119,2.154 -2.348,2.154c-1.675,0 -2.76,-1.405 -2.76,-3.879c-0,-2.44 1.094,-3.837 2.76,-3.837c1.313,0 2.154,0.867 2.348,2.154l3.382,0c-0.151,-2.987 -2.415,-4.948 -5.789,-4.948c-3.921,0 -6.345,2.718 -6.345,6.682c0,3.929 2.382,6.664 6.362,6.664Z" style="fill-rule:nonzero;"/><path d="M51.268,26.694l-2.432,-0l-0,-3.097l-3.585,-0l0,3.097l-1.767,-0l-0,2.692l1.767,0l0,6.732c-0.017,2.533 1.708,3.787 4.308,3.678c0.926,-0.034 1.582,-0.219 1.944,-0.337l-0.564,-2.668c-0.176,0.034 -0.555,0.118 -0.891,0.118c-0.716,0 -1.212,-0.269 -1.212,-1.262l-0,-6.261l2.432,0l-0,-2.692Z" style="fill-rule:nonzero;"/><path d="M56.916,39.619l3.585,-0l-0,-7.313c-0,-1.59 1.161,-2.684 2.743,-2.684c0.497,-0 1.178,0.084 1.515,0.193l-0,-3.18c-0.32,-0.076 -0.766,-0.127 -1.128,-0.127c-1.447,0 -2.634,0.842 -3.105,2.441l-0.135,-0l0,-2.255l-3.475,-0l0,12.925Z" style="fill-rule:nonzero;"/><rect x="69.919" y="22.385" width="3.585" height="17.234" style="fill-rule:nonzero;"/></g><path d="M157.925,39.619l3.644,-0l-0,-5.588l3.063,0c3.963,0 6.269,-2.364 6.269,-5.806c-0,-3.425 -2.264,-5.84 -6.177,-5.84l-6.799,0l0,17.234Zm3.644,-8.508l-0,-5.747l2.457,-0c2.104,-0 3.122,1.144 3.122,2.861c-0,1.708 -1.018,2.886 -3.105,2.886l-2.474,0Z" style="fill-rule:nonzero;"/></g></svg>