<svg width="24" height="24" viewBox="0 0 24 24" fill="none" xmlns="http://www.w3.org/2000/svg">
<path d="M14.0001 22H10.0001M13.0001 2L11.0001 2M6.00005 9V10C6.00005 10.7815 6.00005 11.2343 6.03669 11.5897L5.06772 12.823C3.76356 14.4828 3.11148 15.3127 3.115 16.0101C3.11807 16.6167 3.3963 17.1892 3.87139 17.5664C4.41758 18 5.47303 18 7.58394 18L16.4162 18C18.5271 18 19.5825 18 20.1287 17.5664C20.6038 17.1892 20.882 16.6167 20.8851 16.0101C20.8886 15.3127 20.2365 14.4828 18.9324 12.823L17.9634 11.5897C18.0001 11.2343 18.0001 10.7815 18.0001 10V9C18.0001 8.07099 18.0001 7.60649 17.9385 7.21783C17.5996 5.07837 15.9217 3.40042 13.7822 3.06156C13.3936 3 12.9291 3 12.0001 3C11.071 3 10.6065 3 10.2179 3.06156C8.07842 3.40042 6.40047 5.07837 6.06161 7.21783C6.00005 7.60649 6.00005 8.07099 6.00005 9Z" stroke="currentColor" stroke-width="2" stroke-linecap="round" stroke-linejoin="round"/>
</svg>
