<svg width="24" height="24" viewBox="0 0 24 24" fill="none" xmlns="http://www.w3.org/2000/svg">
<path d="M3 8L3 13C3 15.8003 3 17.2004 3.54497 18.27C4.02433 19.2108 4.78924 19.9757 5.73005 20.455C6.79961 21 8.19974 21 11 21H13C15.8003 21 17.2004 21 18.27 20.455C19.2108 19.9757 19.9757 19.2108 20.455 18.27C21 17.2004 21 15.8003 21 13V8M3 8H21M3 8L3.66958 6.88403C4.51937 5.46771 4.94428 4.75954 5.52928 4.24514C6.04697 3.78993 6.6532 3.44669 7.30988 3.23698C8.05196 3 8.87781 3 10.5295 3L13.4705 3C15.1222 3 15.948 3 16.6901 3.23698C17.3468 3.44669 17.953 3.78993 18.4707 4.24514C19.0557 4.75954 19.4806 5.4677 20.3304 6.88403L21 8M14 13V8L12 3L10 8V13L12 12L14 13Z" stroke="currentColor" stroke-width="2" stroke-linecap="round" stroke-linejoin="round"/>
</svg>
