<svg width="24" height="24" viewBox="0 0 24 24" fill="none" xmlns="http://www.w3.org/2000/svg">
<path d="M14.7449 14.9057C15.2199 14.8706 15.6871 14.6825 16.0886 14.3957C17.2533 13.5637 18.8488 13.6958 19.8609 14.7079L20.05 14.897C21.3167 16.1637 21.3167 18.2174 20.05 19.4842L19.571 19.9631C18.9294 20.6047 18.084 21.0295 17.1773 20.9984C15.0462 20.9252 12.788 20.2366 10.6817 18.969M7.51648 16.4854L7.51554 16.4845C4.66127 13.6302 3.11338 10.0781 3.0016 6.82273C2.97047 5.91596 3.39533 5.07055 4.03689 4.42899L4.51584 3.95004C5.78256 2.68332 7.83633 2.68332 9.10305 3.95004L9.29212 4.13911C10.3042 5.15121 10.4363 6.74668 9.60432 7.91139C9.14348 8.55657 8.93725 9.37158 9.2119 10.1154C9.58715 11.1315 10.2009 12.1089 11.046 12.954L11.047 12.9549M21 3L3 21" stroke="currentColor" stroke-width="2" stroke-linecap="round" stroke-linejoin="round"/>
</svg>
