<svg width="24" height="24" viewBox="0 0 24 24" fill="none" xmlns="http://www.w3.org/2000/svg">
<path d="M4 17V19C4 20.1046 4.89543 21 6 21C7.10457 21 8 20.1046 8 19V17M16 17V19C16 20.1046 16.8954 21 18 21C19.1046 21 20 20.1046 20 19V17M21 7L19 9L18.094 6.28211C17.7006 5.10188 17.5039 4.51176 17.1391 4.07547C16.8169 3.6902 16.4031 3.39198 15.9357 3.20816C15.4065 3 14.7844 3 13.5404 3L10.4596 3C9.21557 3 8.59354 3 8.06426 3.20816C7.59688 3.39198 7.18312 3.6902 6.86093 4.07547C6.49608 4.51176 6.29937 5.10188 5.90596 6.28211L5 9L3 7M17 13V13.0099M7 13V13.0099M17 17H7C6.07003 17 5.60504 17 5.22354 16.8978C4.18827 16.6204 3.37962 15.8117 3.10222 14.7765C3 14.395 3 13.93 3 13C3 12.07 3 11.605 3.10222 11.2235C3.37962 10.1883 4.18827 9.37962 5.22354 9.10222C5.60504 9 6.07003 9 7 9H17C17.93 9 18.395 9 18.7765 9.10222C19.8117 9.37962 20.6204 10.1883 20.8978 11.2235C21 11.605 21 12.07 21 13C21 13.93 21 14.395 20.8978 14.7765C20.6204 15.8117 19.8117 16.6204 18.7765 16.8978C18.395 17 17.93 17 17 17Z" stroke="currentColor" stroke-width="2" stroke-linecap="round" stroke-linejoin="round"/>
</svg>
