<svg width="24" height="24" viewBox="0 0 24 24" fill="none" xmlns="http://www.w3.org/2000/svg">
<path d="M5 6V12.2C5 13.8802 5 14.7202 5.32698 15.362C5.6146 15.9265 6.07354 16.3854 6.63803 16.673C7.27976 17 8.11984 17 9.8 17H14.7973C15.9036 17 16.4568 17 16.9421 16.8284C17.3712 16.6767 17.7602 16.4293 18.0795 16.105C18.4407 15.7383 18.6753 15.2373 19.1444 14.2353L19.7999 12.8353C20.8634 10.5636 21.3952 9.42771 21.2423 8.50804C21.1088 7.70462 20.6543 6.99003 19.9833 6.52841C19.2152 6 17.9611 6 15.4527 6H5ZM5 6V5.91895C5 5.06309 5 4.63516 4.87118 4.29383C4.66826 3.75615 4.24385 3.33174 3.70617 3.12882C3.36484 3 2.93691 3 2.08105 3H2M7 21H8M14 21H15" stroke="currentColor" stroke-width="2" stroke-linecap="round" stroke-linejoin="round"/>
</svg>
