<svg width="24" height="24" viewBox="0 0 24 24" fill="none" xmlns="http://www.w3.org/2000/svg">
<path d="M5 6V5.91895C5 5.06309 5 4.63516 4.87118 4.29383C4.66826 3.75615 4.24385 3.33174 3.70617 3.12882C3.36484 3 2.93691 3 2.08105 3H2M5 6V12.2C5 13.8802 5 14.7202 5.32698 15.362C5.6146 15.9265 6.07354 16.3854 6.63803 16.673C7.27976 17 8.11984 17 9.8 17H14.7973C15.9036 17 16.4568 17 16.9421 16.8284C17.3712 16.6767 17.7602 16.4293 18.0795 16.105C18.4407 15.7383 18.6753 15.2373 19.1444 14.2353L19.7999 12.8353C19.939 12.5381 20.069 12.2604 20.1896 12M5 6H13.0005M7 21H8M14 21H15M19.5 3V8M17 5.5L22 5.5" stroke="currentColor" stroke-width="2" stroke-linecap="round" stroke-linejoin="round"/>
</svg>
