<svg width="24" height="24" viewBox="0 0 24 24" fill="none" xmlns="http://www.w3.org/2000/svg">
<path d="M15 10L11 14L9 12M7.93565 18.9486C7.09968 18.9486 6.68169 18.9486 6.34816 18.8251C5.80546 18.6241 5.37756 18.1962 5.17656 17.6535C5.05302 17.32 5.05303 16.9021 5.05303 16.0665C5.05303 15.7032 5.05303 15.5216 5.02228 15.349C4.97188 15.066 4.86059 14.7973 4.69612 14.5615C4.5958 14.4177 4.46753 14.2895 4.21097 14.0329C3.62452 13.4465 3.33129 13.1532 3.18304 12.8324C2.93899 12.3043 2.93899 11.6957 3.18304 11.1676C3.33129 10.8468 3.62452 10.5535 4.21097 9.96709C4.46753 9.71054 4.5958 9.58226 4.69612 9.43846C4.86059 9.20271 4.97188 8.93404 5.02228 8.65104C5.05303 8.47843 5.05303 8.29699 5.05303 7.93411C5.05303 7.10401 5.05303 6.68896 5.17522 6.35706C5.3761 5.81145 5.80616 5.38138 6.35178 5.1805C6.68368 5.05831 7.09866 5.05831 7.92864 5.05831C8.29173 5.05831 8.47327 5.05831 8.64601 5.02752C8.92883 4.97711 9.19734 4.86589 9.43297 4.70155C9.57688 4.60118 9.70539 4.47267 9.9624 4.21566C10.553 3.62507 10.8483 3.32978 11.1714 3.1813C11.6973 2.93957 12.3027 2.93957 12.8286 3.1813C13.1517 3.32978 13.4472 3.62525 14.0381 4.2162C14.2945 4.47261 14.4228 4.60082 14.5662 4.70097C14.8023 4.86583 15.0715 4.97731 15.355 5.0277C15.5272 5.05831 15.7083 5.05831 16.0703 5.05831C16.8979 5.05831 17.3117 5.05831 17.6427 5.17981C18.1898 5.38062 18.621 5.81181 18.8218 6.35895C18.9433 6.69 18.9433 7.10378 18.9433 7.93135C18.9433 8.2934 18.9433 8.47442 18.974 8.64667C19.0243 8.93019 19.1358 9.19934 19.3007 9.43545C19.4008 9.57889 19.529 9.70705 19.7853 9.96338C20.3749 10.553 20.6697 10.8478 20.8182 11.1702C21.0606 11.6968 21.0606 12.3032 20.8182 12.8298C20.6697 13.1522 20.3753 13.4467 19.7863 14.0356C19.5289 14.2931 19.4001 14.4218 19.2996 14.5661C19.1357 14.8013 19.0247 15.0692 18.9743 15.3514C18.9433 15.5246 18.9433 15.7066 18.9433 16.0707C18.9433 16.9028 18.9433 17.3189 18.8205 17.6516C18.6196 18.1958 18.1905 18.6249 17.6463 18.8258C17.3136 18.9486 16.8971 18.9486 16.064 18.9486C15.7015 18.9486 15.5202 18.9486 15.3479 18.9793C15.0645 19.0296 14.7954 19.1411 14.5594 19.3059C14.4159 19.4061 14.2878 19.5341 14.0317 19.7902C13.4464 20.3756 13.1537 20.6682 12.8336 20.8164C12.3048 21.0612 11.6952 21.0612 11.1664 20.8164C10.8463 20.6682 10.5536 20.3756 9.96826 19.7902C9.71218 19.5341 9.58414 19.4061 9.44065 19.3059C9.20459 19.1411 8.9355 19.0296 8.65206 18.9793C8.47975 18.9486 8.29839 18.9486 7.93565 18.9486Z" stroke="currentColor" stroke-width="2" stroke-linecap="round" stroke-linejoin="round"/>
</svg>
