<svg width="24" height="24" viewBox="0 0 24 24" fill="none" xmlns="http://www.w3.org/2000/svg">
<path d="M5.32918 17.3619L5.07037 18.3278L5.32918 17.3619ZM4.02163 15.0967L4.98756 15.3555L4.02163 15.0967ZM6.63691 18.6699L7.60284 18.4111L6.63691 18.6699ZM8.90366 19.9791L9.16247 20.945L8.90366 19.9791ZM10.6911 20.458L11.3982 19.7509L10.6911 20.458ZM13.3082 20.4579L14.0153 21.165V21.165L13.3082 20.4579ZM15.0962 19.9789L15.355 19.013L15.0962 19.9789ZM17.3634 18.6699L16.3974 18.4111L17.3634 18.6699ZM18.6711 17.3619L18.4123 16.396L18.6711 17.3619ZM19.9786 15.0964L20.9445 14.8376L19.9786 15.0964ZM20.4577 13.3084L21.1648 14.0155V14.0155L20.4577 13.3084ZM20.4583 10.6923L19.7512 11.3994V11.3994L20.4583 10.6923ZM19.9797 8.90546L19.0138 8.64664V8.64664L19.9797 8.90546ZM18.6701 6.63738L18.9289 5.67145V5.67145L18.6701 6.63738ZM17.3614 5.32905L18.3273 5.07023L17.3614 5.32905ZM15.0954 4.02089L15.3542 4.98681L15.0954 4.02089ZM13.308 3.54192L12.6009 4.24903L13.308 3.54192ZM10.6912 3.54187L11.3983 4.24898L10.6912 3.54187ZM8.90443 4.02068L9.16325 3.05476L8.90443 4.02068ZM6.63891 5.32892L5.67298 5.0701L6.63891 5.32892ZM5.32992 6.63754L5.0711 5.67161H5.0711L5.32992 6.63754ZM4.02026 8.9044L3.05434 9.16322L4.02026 8.9044ZM3.54139 10.6917L4.2485 11.3988V11.3988L3.54139 10.6917ZM3.54237 13.3093L2.83527 14.0164V14.0164L3.54237 13.3093ZM15.7071 10.7071C16.0976 10.3166 16.0976 9.68341 15.7071 9.29288C15.3166 8.90236 14.6834 8.90236 14.2929 9.29288L15.7071 10.7071ZM11 14L10.2929 14.7071C10.6834 15.0976 11.3166 15.0976 11.7071 14.7071L11 14ZM9.70711 11.2929C9.31659 10.9024 8.68342 10.9024 8.2929 11.2929C7.90237 11.6834 7.90237 12.3166 8.2929 12.7071L9.70711 11.2929ZM5.588 16.3959C5.13514 16.2746 4.86612 15.8088 4.98756 15.3555L3.05571 14.8379C2.64848 16.3577 3.55019 17.9204 5.07037 18.3278L5.588 16.3959ZM7.60284 18.4111C7.33944 17.428 6.5715 16.6595 5.588 16.3959L5.07037 18.3278C5.3632 18.4062 5.59239 18.6354 5.67099 18.9287L7.60284 18.4111ZM8.64484 19.0132C8.19152 19.1347 7.72455 18.8653 7.60284 18.4111L5.67099 18.9287C6.07834 20.4489 7.64133 21.3526 9.16247 20.945L8.64484 19.0132ZM11.3982 19.7509C10.6781 19.0308 9.62849 18.7496 8.64484 19.0132L9.16247 20.945C9.45598 20.8664 9.76915 20.9503 9.98399 21.1652L11.3982 19.7509ZM12.6011 19.7508C12.2688 20.083 11.7302 20.083 11.3982 19.7509L9.98399 21.1652C11.0972 22.2784 12.9022 22.2781 14.0153 21.165L12.6011 19.7508ZM15.355 19.013C14.3713 18.7494 13.3213 19.0306 12.6011 19.7508L14.0153 21.165C14.2301 20.9502 14.5437 20.8661 14.8373 20.9448L15.355 19.013ZM16.3974 18.4111C16.2758 18.8649 15.8088 19.1346 15.355 19.013L14.8373 20.9448C16.3582 21.3523 17.9218 20.4494 18.3293 18.9287L16.3974 18.4111ZM18.4123 16.396C17.4288 16.6595 16.6609 17.428 16.3974 18.4111L18.3293 18.9287C18.4079 18.6354 18.637 18.4064 18.9299 18.3279L18.4123 16.396ZM19.0126 15.3552C19.1342 15.8087 18.8649 16.2747 18.4123 16.396L18.9299 18.3279C20.4504 17.9205 21.3516 16.3571 20.9445 14.8376L19.0126 15.3552ZM19.7506 12.6013C19.0306 13.3213 18.7491 14.3715 19.0126 15.3552L20.9445 14.8376C20.8659 14.5442 20.95 14.2303 21.1648 14.0155L19.7506 12.6013ZM19.7512 11.3994C20.0825 11.7307 20.0828 12.2691 19.7506 12.6013L21.1648 14.0155C22.2772 12.9031 22.2786 11.0983 21.1654 9.98514L19.7512 11.3994ZM19.0138 8.64664C18.7504 9.62975 19.0312 10.6794 19.7512 11.3994L21.1654 9.98514C20.951 9.77071 20.8671 9.45764 20.9457 9.16428L19.0138 8.64664ZM18.4113 7.60331C18.8655 7.72502 19.1354 8.1927 19.0138 8.64664L20.9457 9.16428C21.3533 7.64312 20.4498 6.07897 18.9289 5.67145L18.4113 7.60331ZM16.3955 5.58787C16.6591 6.5717 17.428 7.33984 18.4113 7.60331L18.9289 5.67145C18.6353 5.59277 18.4059 5.3633 18.3273 5.07023L16.3955 5.58787ZM15.3542 4.98681C15.8078 4.86528 16.274 5.13448 16.3955 5.58787L18.3273 5.07023C17.9199 3.54972 16.3569 2.64759 14.8366 3.05496L15.3542 4.98681ZM12.6009 4.24903C13.3209 4.96906 14.3706 5.25038 15.3542 4.98681L14.8366 3.05496C14.5432 3.13358 14.2299 3.04964 14.0151 2.83482L12.6009 4.24903ZM11.3983 4.24898C11.7303 3.91701 12.2688 3.91699 12.6009 4.24903L14.0151 2.83482C12.9021 1.7218 11.0972 1.72168 9.98409 2.83477L11.3983 4.24898ZM8.64562 4.98661C9.62909 5.25013 10.6784 4.96885 11.3983 4.24898L9.98409 2.83477C9.76939 3.04947 9.45644 3.13331 9.16325 3.05476L8.64562 4.98661ZM7.60484 5.58774C7.72635 5.13424 8.19251 4.8652 8.64562 4.98661L9.16325 3.05476C7.64282 2.64736 6.08028 3.55006 5.67298 5.0701L7.60484 5.58774ZM5.58874 7.60347C6.57202 7.34 7.34121 6.57162 7.60484 5.58774L5.67298 5.0701C5.59445 5.36319 5.3648 5.59292 5.0711 5.67161L5.58874 7.60347ZM4.98619 8.64558C4.86481 8.19258 5.13426 7.72524 5.58874 7.60347L5.0711 5.67161C3.55117 6.07888 2.64668 7.64181 3.05434 9.16322L4.98619 8.64558ZM4.2485 11.3988C4.96858 10.6787 5.24973 9.62915 4.98619 8.64558L3.05434 9.16322C3.13297 9.45667 3.04906 9.7698 2.83429 9.98457L4.2485 11.3988ZM2.83527 14.0164C3.05019 14.2314 3.13418 14.545 3.05571 14.8379L4.98756 15.3555C5.25116 14.3718 4.96911 13.3219 4.24948 12.6022L2.83527 14.0164ZM4.24948 12.6022C3.91674 12.2695 3.91714 11.7301 4.2485 11.3988L2.83429 9.98457C1.7205 11.0984 1.72286 12.904 2.83527 14.0164L4.24948 12.6022ZM14.2929 9.29288L10.2929 13.2929L11.7071 14.7071L15.7071 10.7071L14.2929 9.29288ZM11.7071 13.2929L9.70711 11.2929L8.2929 12.7071L10.2929 14.7071L11.7071 13.2929Z" fill="currentColor"/>
</svg>
