<svg width="24" height="24" viewBox="0 0 24 24" fill="none" xmlns="http://www.w3.org/2000/svg">
<path d="M13 12L9 16L7 14M10 7C11.8613 7 12.7919 7 13.5451 7.24472C15.0673 7.73931 16.2607 8.93272 16.7553 10.4549C17 11.2081 17 12.1387 17 14M10 7C8.13872 7 7.20808 7 6.45492 7.24472C4.93273 7.73931 3.73931 8.93272 3.24472 10.4549C3 11.2081 3 12.1387 3 14C3 15.8613 3 16.7919 3.24472 17.5451C3.73931 19.0673 4.93273 20.2607 6.45492 20.7553C7.20808 21 8.13872 21 10 21C11.8613 21 12.7919 21 13.5451 20.7553C15.0673 20.2607 16.2607 19.0673 16.7553 17.5451C17 16.7919 17 15.8613 17 14M10 7C8.6272 7 7.76013 7 7.09766 7.09819C7.13259 6.86246 7.17996 6.65258 7.24419 6.45492C7.73878 4.93272 8.9322 3.73931 10.4544 3.24472C11.2075 3 12.1382 3 13.9995 3C15.8608 3 16.7914 3 17.5446 3.24472C19.0667 3.73931 20.2602 4.93272 20.7548 6.45492C20.9995 7.20808 20.9995 8.13872 20.9995 10C20.9995 11.8613 20.9995 12.7919 20.7548 13.5451C20.2602 15.0673 19.0667 16.2607 17.5446 16.7553C17.3469 16.8195 17.137 16.8669 16.9013 16.9018C16.9995 16.2393 17 15.3728 17 14" stroke="currentColor" stroke-width="2" stroke-linecap="round" stroke-linejoin="round"/>
</svg>
