<svg width="24" height="24" viewBox="0 0 24 24" fill="none" xmlns="http://www.w3.org/2000/svg">
<path d="M14 2L16.01 2M22 7.99V10M20 2C21.1046 2 22 2.89543 22 4M8 4C8 2.89543 8.89543 2 10 2M22 14C22 15.1046 21.1046 16 20 16M9 8C10.8613 8 11.7919 8 12.5451 8.24472C14.0673 8.73931 15.2607 9.93272 15.7553 11.4549C16 12.2081 16 13.1387 16 15C16 16.8613 16 17.7919 15.7553 18.5451C15.2607 20.0673 14.0673 21.2607 12.5451 21.7553C11.7919 22 10.8613 22 9 22C7.13872 22 6.20808 22 5.45492 21.7553C3.93273 21.2607 2.73931 20.0673 2.24472 18.5451C2 17.7919 2 16.8613 2 15C2 13.1387 2 12.2081 2.24472 11.4549C2.73931 9.93272 3.93273 8.73931 5.45492 8.24472C6.20808 8 7.13872 8 9 8Z" stroke="currentColor" stroke-width="2" stroke-linecap="round" stroke-linejoin="round"/>
</svg>
