<svg width="24" height="24" viewBox="0 0 24 24" fill="none" xmlns="http://www.w3.org/2000/svg">
<path d="M10 7C11.8613 7 12.7919 7 13.5451 7.24472C15.0673 7.73931 16.2607 8.93272 16.7553 10.4549C17 11.2081 17 12.1387 17 14M10 7C8.13872 7 7.20808 7 6.45492 7.24472C4.93273 7.73931 3.73931 8.93272 3.24472 10.4549C3 11.2081 3 12.1387 3 14C3 15.8613 3 16.7919 3.24472 17.5451C3.73931 19.0673 4.93273 20.2607 6.45492 20.7553C7.20808 21 8.13872 21 10 21C11.8613 21 12.7919 21 13.5451 20.7553C15.0673 20.2607 16.2607 19.0673 16.7553 17.5451C17 16.7919 17 15.8613 17 14M10 7C8.6272 7 7.76066 7 7.09819 7.09819C7.13312 6.86246 7.18049 6.65258 7.24472 6.45492C7.73931 4.93272 8.93273 3.73931 10.4549 3.24472C11.2081 3 12.1387 3 14 3C15.8613 3 16.7919 3 17.5451 3.24472C19.0673 3.73931 20.2607 4.93272 20.7553 6.45492C21 7.20808 21 8.13872 21 10C21 11.8613 21 12.7919 20.7553 13.5451C20.2607 15.0673 19.0673 16.2607 17.5451 16.7553C17.3474 16.8195 17.1375 16.8669 16.9018 16.9018C17 16.2393 17 15.3728 17 14" stroke="currentColor" stroke-width="2" stroke-linecap="round" stroke-linejoin="round"/>
</svg>
