<svg width="24" height="24" viewBox="0 0 24 24" fill="none" xmlns="http://www.w3.org/2000/svg">
<path d="M8 3L8.2 3C12.6804 3 14.9206 3 16.6319 3.87195C18.1372 4.63894 19.3611 5.86278 20.1281 7.36808C21 9.07937 21 11.3196 21 15.8V16M10 7C11.8613 7 12.7919 7 13.5451 7.24472C15.0673 7.73931 16.2607 8.93272 16.7553 10.4549C17 11.2081 17 12.1387 17 14C17 15.8613 17 16.7919 16.7553 17.5451C16.2607 19.0673 15.0673 20.2607 13.5451 20.7553C12.7919 21 11.8613 21 10 21C8.13872 21 7.20808 21 6.45492 20.7553C4.93273 20.2607 3.73931 19.0673 3.24472 17.5451C3 16.7919 3 15.8613 3 14C3 12.1387 3 11.2081 3.24472 10.4549C3.73931 8.93272 4.93273 7.73931 6.45492 7.24472C7.20808 7 8.13872 7 10 7Z" stroke="currentColor" stroke-width="2" stroke-linecap="round" stroke-linejoin="round"/>
</svg>
