<svg width="24" height="24" viewBox="0 0 24 24" fill="none" xmlns="http://www.w3.org/2000/svg">
<path d="M14 7C15.8613 7 16.7919 7 17.5451 7.24472C19.0673 7.73931 20.2607 8.93272 20.7553 10.4549C21 11.2081 21 12.1387 21 14C21 15.8613 21 16.7919 20.7553 17.5451C20.2607 19.0673 19.0673 20.2607 17.5451 20.7553C16.7919 21 15.8613 21 14 21C12.1387 21 11.2081 21 10.4549 20.7553C8.93273 20.2607 7.73931 19.0673 7.24472 17.5451C7 16.7919 7 15.8613 7 14M14 7C12.1387 7 11.2081 7 10.4549 7.24472C8.93273 7.73931 7.73931 8.93272 7.24472 10.4549C7 11.2081 7 12.1387 7 14M14 7C15.3728 7 16.2393 7 16.9018 7.09819C16.8669 6.86246 16.8195 6.65258 16.7553 6.45492C16.2607 4.93272 15.0673 3.73931 13.5451 3.24472C12.7919 3 11.8613 3 10 3C8.13872 3 7.20808 3 6.45492 3.24472C4.93273 3.73931 3.73931 4.93272 3.24472 6.45492C3 7.20808 3 8.13872 3 10C3 11.8613 3 12.7919 3.24472 13.5451C3.73931 15.0673 4.93273 16.2607 6.45492 16.7553C6.65258 16.8195 6.86246 16.8669 7.09819 16.9018C7 16.2393 7 15.3728 7 14M14 12V16M12 14L16 14" stroke="currentColor" stroke-width="2" stroke-linecap="round" stroke-linejoin="round"/>
</svg>
