<svg width="24" height="24" viewBox="0 0 24 24" fill="none" xmlns="http://www.w3.org/2000/svg">
<path d="M10.4963 3.00211C8.02782 3.00406 6.73346 3.03568 5.73005 3.54695C4.78924 4.02631 4.02433 4.79122 3.54497 5.73203C3 6.80159 3 8.20172 3 11.002V13.002C3 15.8022 3 17.2024 3.54497 18.2719C4.02433 19.2127 4.78924 19.9776 5.73005 20.457C6.79961 21.002 8.19974 21.002 11 21.002H13C15.8003 21.002 17.2004 21.002 18.27 20.457C19.2108 19.9776 19.9757 19.2127 20.455 18.2719C20.9668 17.2675 20.998 15.9716 20.9999 13.4985M13.1095 6.58038L16.1874 3.50235C17.3779 2.31174 19.3082 2.31171 20.4988 3.50229C21.6894 4.69285 21.6894 6.62314 20.4988 7.81369L17.4606 10.8518C16.7851 11.5273 16.4473 11.865 16.0666 12.1262C15.4914 12.5207 14.84 12.7906 14.1543 12.9184C13.7004 13.0029 13.2227 13.003 12.2674 13.003L10.9187 13.0031L10.9431 11.6771C10.9608 10.7236 10.9696 10.2469 11.0625 9.79463C11.1966 9.14175 11.4599 8.52228 11.8369 7.97263C12.0981 7.59189 12.4352 7.25472 13.1095 6.58038ZM13.2811 6.40855L15.6885 4.00107L20 8.31253L17.6529 10.6593C16.7883 11.5238 16.356 11.9561 15.8515 12.2652C15.4042 12.5393 14.9165 12.7413 14.4064 12.8638C13.8311 13.0019 13.2197 13.002 11.997 13.002L10.9192 13.0021L10.9393 11.9177C10.9613 10.7258 10.9723 10.1299 11.1144 9.56993C11.2404 9.07338 11.442 8.59915 11.7121 8.16383C12.0167 7.6729 12.4382 7.25145 13.2811 6.40855Z" stroke="currentColor" stroke-width="2" stroke-linecap="round" stroke-linejoin="round"/>
</svg>
