<svg width="24" height="24" viewBox="0 0 24 24" fill="none" xmlns="http://www.w3.org/2000/svg">
<path d="M10.5002 3.00004C8.02918 3.00197 6.73399 3.03335 5.73005 3.54489C4.78924 4.02425 4.02433 4.78916 3.54497 5.72997C3 6.79953 3 8.19966 3 10.9999V12.9999C3 15.8002 3 17.2003 3.54497 18.2699C4.02433 19.2107 4.78924 19.9756 5.73005 20.455C6.79961 20.9999 8.19974 20.9999 11 20.9999H13C15.8003 20.9999 17.2004 20.9999 18.27 20.455C19.2108 19.9756 19.9757 19.2107 20.455 18.2699C20.9665 17.266 20.9979 15.9709 20.9999 13.5003M11.9376 8.10934L16.0452 4.00068C16.5693 3.47639 16.8314 3.21425 17.1122 3.07064C17.684 2.77825 18.3613 2.77821 18.9332 3.07052C19.214 3.21408 19.4761 3.47619 20.0003 4.00041C20.5244 4.52453 20.7865 4.78659 20.93 5.06737C21.2223 5.63908 21.2224 6.31636 20.9301 6.8881C20.7866 7.1689 20.5246 7.43098 20.0005 7.95513L15.8925 12.0638C15.5466 12.4097 15.3737 12.5827 15.1719 12.7064C14.993 12.8161 14.7979 12.8969 14.5938 12.9459C14.3637 13.0012 14.1191 13.0012 13.6299 13.0013L11.0007 13.0016L11.0007 10.3718C11.0007 9.88271 11.0007 9.63816 11.0559 9.40802C11.1049 9.20398 11.1857 9.00892 11.2953 8.82999C11.4189 8.62818 11.5918 8.45523 11.9376 8.10934Z" stroke="currentColor" stroke-width="2" stroke-linecap="round" stroke-linejoin="round"/>
</svg>
