<svg width="24" height="24" viewBox="0 0 24 24" fill="none" xmlns="http://www.w3.org/2000/svg">
<path d="M10.3487 3.14844C6.16681 3.92392 3 7.59078 3 11.9973C3 16.9678 7.02944 20.9973 12 20.9973C16.4066 20.9973 20.0736 17.8303 20.8489 13.6482M11.9341 8.11211L16.043 4.00231C16.5672 3.47805 16.8292 3.21592 17.1101 3.07233C17.6818 2.77996 18.3592 2.77992 18.931 3.07223C19.2118 3.2158 19.4739 3.4779 19.9981 4.0021C20.5223 4.52623 20.7843 4.7883 20.9279 5.06909C21.2202 5.64082 21.2202 6.31812 20.9279 6.88985C20.7844 7.17065 20.5223 7.43274 19.9982 7.95689L15.8889 12.0667C15.5422 12.4134 15.3689 12.5867 15.1666 12.7105C14.9872 12.8204 14.7917 12.9012 14.5872 12.9501C14.3565 13.0052 14.1113 13.0048 13.6211 13.0041L11.0014 13L10.9971 10.3799C10.9962 9.88971 10.9958 9.64459 11.0509 9.41389C11.0998 9.20936 11.1806 9.0138 11.2903 8.83444C11.4142 8.63213 11.5875 8.45879 11.9341 8.11211Z" stroke="currentColor" stroke-width="2" stroke-linecap="round" stroke-linejoin="round"/>
</svg>
