<svg width="24" height="24" viewBox="0 0 24 24" fill="none" xmlns="http://www.w3.org/2000/svg">
<path d="M14.036 20.9992H21M5.36228 13.5253L14.5326 4.06305C15.9063 2.64567 18.1334 2.64565 19.5071 4.06301C20.8808 5.48036 20.8808 7.77834 19.5071 9.19568L10.3974 18.5948M5.36228 13.5253C4.5238 14.3905 4.10455 14.8231 3.80154 15.327C3.53287 15.7738 3.33233 16.2605 3.20695 16.7702C3.06556 17.345 3.05459 17.9566 3.03264 19.18L3 21H4.76972C5.98637 21 6.59469 21 7.16717 20.8582C7.67472 20.7325 8.15993 20.5251 8.60499 20.2437C9.10697 19.9263 9.53713 19.4825 10.3974 18.5948M5.36228 13.5253L12.5437 6.11511L17.5182 11.2478L10.3974 18.5948" stroke="currentColor" stroke-width="2" stroke-linecap="round" stroke-linejoin="round"/>
</svg>
