<svg width="24" height="24" viewBox="0 0 24 24" fill="none" xmlns="http://www.w3.org/2000/svg">
<path d="M15.9029 4.16065L3.98479 16.1398C3.65469 16.4716 3.48963 16.6375 3.37003 16.8307C3.26397 17.002 3.18457 17.1885 3.13456 17.3839C3.07816 17.6042 3.07276 17.8388 3.06196 18.3079L3 21H5.72705C6.20915 21 6.4502 21 6.67705 20.9453C6.87817 20.8967 7.07044 20.8167 7.24679 20.7081C7.4457 20.5856 7.61616 20.4142 7.95706 20.0716L19.8453 8.12307C20.3827 7.58287 20.6514 7.31278 20.7951 7.0214C21.0683 6.46718 21.0683 5.81651 20.7951 5.26229C20.6515 4.97091 20.3827 4.70082 19.8453 4.16062C19.3078 3.62042 19.0391 3.35032 18.7492 3.20595C18.1978 2.93135 17.5504 2.93135 16.999 3.20596C16.7091 3.35034 16.4403 3.62044 15.9029 4.16065Z" stroke="currentColor" stroke-width="2" stroke-linecap="round" stroke-linejoin="round"/>
</svg>
