<svg width="24" height="24" viewBox="0 0 24 24" fill="none" xmlns="http://www.w3.org/2000/svg">
<path d="M10.3509 3.1494C6.16792 3.924 3 7.59138 3 11.9987C3 16.9692 7.02944 20.9987 12 20.9987C16.4059 20.9987 20.0723 17.8328 20.8485 13.6518M13.1077 6.58038L16.1856 3.50235C17.3761 2.31174 19.3065 2.31171 20.497 3.50229C21.6876 4.69285 21.6876 6.62314 20.497 7.81369L17.4588 10.8518C16.7833 11.5273 16.4455 11.865 16.0648 12.1262C15.4896 12.5207 14.8382 12.7906 14.1525 12.9184C13.6986 13.0029 13.2209 13.003 12.2656 13.003L10.9169 13.0031L10.9414 11.6771C10.959 10.7236 10.9678 10.2469 11.0607 9.79463C11.1948 9.14175 11.4581 8.52228 11.8351 7.97263C12.0963 7.59189 12.4334 7.25472 13.1077 6.58038ZM13.2824 6.40155L15.6899 3.99407L20.0013 8.30553L17.6543 10.6523C16.7896 11.5168 16.3573 11.9491 15.8528 12.2582C15.4055 12.5323 14.9178 12.7343 14.4078 12.8568C13.8324 12.9949 13.2211 12.9949 11.9983 12.995L10.9206 12.9951L10.9406 11.9107C10.9626 10.7188 10.9736 10.1229 11.1157 9.56292C11.2418 9.06637 11.4433 8.59214 11.7134 8.15683C12.018 7.6659 12.4395 7.24445 13.2824 6.40155Z" stroke="currentColor" stroke-width="2" stroke-linecap="round" stroke-linejoin="round"/>
</svg>
