<svg width="24" height="24" viewBox="0 0 24 24" fill="none" xmlns="http://www.w3.org/2000/svg">
<path d="M10.593 18.5941L19.9426 9.19538C21.3525 7.77811 21.3525 5.48024 19.9426 4.06296C18.5328 2.64567 16.2469 2.64568 14.8371 4.063L5.42525 13.5248C4.56468 14.3899 4.13439 14.8225 3.8234 15.3264C3.54765 15.7732 3.34183 16.2599 3.21315 16.7695C3.06803 17.3443 3.05677 17.9559 3.03425 19.1792M10.593 18.5941C9.71005 19.4817 9.26856 19.9255 8.75336 20.2429C8.29658 20.5243 7.79859 20.7316 7.27767 20.8573C6.69012 20.9991 6.06577 20.9991 4.81707 20.9991H3.00075L3.03425 19.1792M10.593 18.5941L17.9002 11.2479L12.7947 6.11544L5.42423 13.5257C4.56376 14.3908 4.13352 14.8234 3.82257 15.3272C3.54685 15.774 3.34105 16.2607 3.21239 16.7703C3.06729 17.3451 3.05677 17.956 3.03425 19.1792M10.593 18.5941C9.71004 19.4818 9.26783 19.9263 8.75261 20.2437C8.29582 20.5251 7.79781 20.7325 7.27687 20.8582C6.68929 21 6.06492 21 4.81616 21H3L3.03425 19.1792" stroke="currentColor" stroke-width="2" stroke-linecap="round" stroke-linejoin="round"/>
</svg>
