<svg width="24" height="24" viewBox="0 0 24 24" fill="none" xmlns="http://www.w3.org/2000/svg">
<path d="M2.9997 3L20.9997 21M3.9052 9.56254C3.65494 9.8407 3.42612 10.109 3.22069 10.3593C2.84033 10.8229 2.65015 11.0547 2.53665 11.4572C2.45393 11.7506 2.45393 12.2494 2.53665 12.5428C2.65015 12.9453 2.84033 13.1771 3.22069 13.6407C4.91825 15.7096 8.21321 19 11.9997 19C12.416 19 12.8264 18.9602 13.2293 18.8867M17.1277 17.1282C18.6571 16.0415 19.9215 14.6854 20.7787 13.6407C21.1591 13.1771 21.3492 12.9453 21.4627 12.5428C21.5455 12.2494 21.5455 11.7506 21.4627 11.4572C21.3492 11.0547 21.1591 10.8229 20.7787 10.3593C19.0812 8.29038 15.7862 5 11.9997 5C10.1251 5 8.37095 5.80648 6.87148 6.87197L10.5854 10.5859C10.9473 10.2239 11.4474 10 11.9997 10C13.1043 10 13.9997 10.8954 13.9997 12C13.9997 12.5523 13.7758 13.0524 13.4138 13.4143L17.1277 17.1282Z" stroke="currentColor" stroke-width="2" stroke-linecap="round" stroke-linejoin="round"/>
</svg>
