<svg width="24" height="24" viewBox="0 0 24 24" fill="none" xmlns="http://www.w3.org/2000/svg">
<path d="M20.7787 10.3593C21.1591 10.8229 21.3492 11.0547 21.4627 11.4572C21.5455 11.7506 21.5455 12.2494 21.4627 12.5428C21.3492 12.9453 21.1591 13.1771 20.7787 13.6407C19.0811 15.7096 15.7862 19 11.9997 19C8.21321 19 4.91825 15.7096 3.22069 13.6407C2.84033 13.1771 2.65015 12.9453 2.53665 12.5428C2.45393 12.2494 2.45393 11.7506 2.53665 11.4572C2.65015 11.0547 2.84033 10.8229 3.22069 10.3593C4.91825 8.29038 8.21321 5 11.9997 5C15.7862 5 19.0811 8.29038 20.7787 10.3593Z" stroke="currentColor" stroke-width="2" stroke-linecap="round" stroke-linejoin="round"/>
<path d="M13.9997 12C13.9997 10.8954 13.1043 10 11.9997 10C10.8951 10 9.9997 10.8954 9.9997 12C9.9997 13.1046 10.8951 14 11.9997 14C13.1043 14 13.9997 13.1046 13.9997 12Z" stroke="currentColor" stroke-width="2" stroke-linecap="round" stroke-linejoin="round"/>
</svg>
