<svg width="24" height="24" viewBox="0 0 24 24" fill="none" xmlns="http://www.w3.org/2000/svg">
<path d="M8 16H5.2C4.0799 16 3.51984 16 3.09202 15.782C2.7157 15.5903 2.40973 15.2843 2.21799 14.908C2 14.4802 2 13.9201 2 12.8L2 11.9777C2 11.2598 2 10.9008 2.10931 10.5839C2.20597 10.3037 2.36373 10.0484 2.57116 9.83663C2.80573 9.59713 3.12679 9.4366 3.76892 9.11554L4 9M12 15V15.0099M17.2 21H12.8C11.1198 21 10.2798 21 9.63803 20.673C9.07354 20.3854 8.6146 19.9265 8.32698 19.362C8 18.7202 8 17.8802 8 16.2V7.8C8 6.11984 8 5.27976 8.32698 4.63803C8.6146 4.07354 9.07354 3.6146 9.63803 3.32698C10.2798 3 11.1198 3 12.8 3L17.2 3C18.8802 3 19.7202 3 20.362 3.32698C20.9265 3.6146 21.3854 4.07354 21.673 4.63803C22 5.27976 22 6.11984 22 7.8V16.2C22 17.8802 22 18.7202 21.673 19.362C21.3854 19.9265 20.9265 20.3854 20.362 20.673C19.7202 21 18.8802 21 17.2 21ZM18 11H12V7H18V11Z" stroke="currentColor" stroke-width="2" stroke-linecap="round" stroke-linejoin="round"/>
</svg>
