<svg width="24" height="24" viewBox="0 0 24 24" fill="none" xmlns="http://www.w3.org/2000/svg">
<path d="M14.6246 19.4022C17.5875 17.3621 22 13.5042 22 8.62126C22 5.51398 19.51 3 16.44 3C14.63 3 13.01 3.88492 12 5.25253C10.99 3.88492 9.38 3 7.56 3C4.49 3 2 5.51398 2 8.62126C2 9.12024 2.04608 9.60851 2.13198 10.0852M2 15.8106C2 14.257 3.245 13 4.78 13C5.69 13 6.495 13.4425 7 14.1263C7.505 13.4425 8.315 13 9.22 13C10.755 13 12 14.257 12 15.8106C12 18.22 9.85137 20.1302 8.37112 21.1604C8.0168 21.407 7.83965 21.5302 7.48161 21.6191C7.23975 21.6791 6.76025 21.6791 6.51839 21.6191C6.16035 21.5302 5.9832 21.407 5.62888 21.1604C4.14863 20.1302 2 18.22 2 15.8106Z" stroke="currentColor" stroke-width="2" stroke-linecap="round" stroke-linejoin="round"/>
</svg>
