<svg width="24" height="24" viewBox="0 0 24 24" fill="none" xmlns="http://www.w3.org/2000/svg">
<path d="M12 17.0001V17.0101M13 21.0001H11C8.19974 21.0001 6.79961 21.0001 5.73005 20.4551C4.78924 19.9758 4.02433 19.2109 3.54497 18.2701C3 17.2005 3 15.8004 3 13.0001L3 12.2816C3 10.7162 3 9.93355 3.21575 9.2231C3.40676 8.59415 3.7199 8.00904 4.13727 7.50123C4.60872 6.92763 5.25994 6.49348 6.5624 5.62518L10.225 3.18347C10.8665 2.75579 11.1872 2.54195 11.5339 2.45887C11.8403 2.38545 12.1597 2.38545 12.4661 2.45887C12.8128 2.54195 13.1335 2.75579 13.775 3.18347L17.4376 5.62517C18.7401 6.49348 19.3913 6.92763 19.8627 7.50123C20.2801 8.00904 20.5932 8.59415 20.7842 9.2231C21 9.93355 21 10.7162 21 12.2816V13.0001C21 15.8004 21 17.2005 20.455 18.2701C19.9757 19.2109 19.2108 19.9758 18.27 20.4551C17.2004 21.0001 15.8003 21.0001 13 21.0001Z" stroke="currentColor" stroke-width="2" stroke-linecap="round" stroke-linejoin="round"/>
</svg>
