<svg width="24" height="24" viewBox="0 0 24 24" fill="none" xmlns="http://www.w3.org/2000/svg">
<path d="M5 12V16.2C5 17.8801 5 18.7202 5.32698 19.3619C5.6146 19.9264 6.07354 20.3854 6.63803 20.673C7.27976 21 8.11984 21 9.8 21H14.2C15.8802 21 16.7202 21 17.362 20.673C17.9265 20.3854 18.3854 19.9264 18.673 19.3619C19 18.7202 19 17.8801 19 16.2V12M22 8.99996L14.4696 4.48171C13.5717 3.94297 13.1227 3.6736 12.6435 3.56836C12.2195 3.47526 11.7805 3.47526 11.3565 3.56836C10.8773 3.6736 10.4283 3.94297 9.53042 4.48171L2 8.99997" stroke="currentColor" stroke-width="2" stroke-linecap="round" stroke-linejoin="round"/>
</svg>
