<svg width="24" height="24" viewBox="0 0 24 24" fill="none" xmlns="http://www.w3.org/2000/svg">
<path d="M9 17.0001V21.0001H15V17.0001C15 15.3433 13.6569 14.0001 12 14.0001C10.3431 14.0001 9 15.3433 9 17.0001Z" stroke="currentColor" stroke-width="2" stroke-linecap="round" stroke-linejoin="round"/>
<path d="M11 21.0001H13C15.8003 21.0001 17.2004 21.0001 18.27 20.4551C19.2108 19.9758 19.9757 19.2109 20.455 18.2701C21 17.2005 21 15.8004 21 13.0001V12.2816C21 10.7162 21 9.93355 20.7842 9.2231C20.5932 8.59415 20.2801 8.00904 19.8627 7.50123C19.3913 6.92763 18.7401 6.49348 17.4376 5.62517L13.775 3.18347C13.1335 2.75579 12.8128 2.54195 12.4661 2.45887C12.1597 2.38545 11.8403 2.38545 11.5339 2.45887C11.1872 2.54195 10.8665 2.75579 10.225 3.18347L6.5624 5.62518C5.25994 6.49348 4.60872 6.92763 4.13727 7.50123C3.7199 8.00904 3.40676 8.59415 3.21575 9.2231C3 9.93355 3 10.7162 3 12.2816L3 13.0001C3 15.8004 3 17.2005 3.54497 18.2701C4.02433 19.2109 4.78924 19.9758 5.73005 20.4551C6.79961 21.0001 8.19974 21.0001 11 21.0001Z" stroke="currentColor" stroke-width="2" stroke-linecap="round" stroke-linejoin="round"/>
</svg>
