<svg width="24" height="24" viewBox="0 0 24 24" fill="none" xmlns="http://www.w3.org/2000/svg">
<path d="M12.2581 9.16888L13.1719 9.57502V9.57502L12.2581 9.16888ZM10.054 14.128L9.13485 14.522C9.29148 14.8874 9.64974 15.1254 10.0473 15.128C10.4449 15.1307 10.8063 14.8975 10.9678 14.5342L10.054 14.128ZM17.7409 9.16888L16.8271 9.57502V9.57502L17.7409 9.16888ZM21.1247 16.7822L22.0385 16.3761L22.0385 16.3761L21.1247 16.7822ZM18.3832 21.0007V20.0007H18.3832L18.3832 21.0007ZM5.54913 21.0009V22.0009H5.54915L5.54913 21.0009ZM2.79169 16.8192L3.71084 17.2131H3.71084L2.79169 16.8192ZM4.24208 13.4349L3.32293 13.041V13.041L4.24208 13.4349ZM9.75695 13.4349L8.8378 13.8288V13.8288L9.75695 13.4349ZM5.99952 5C5.99952 5.55228 5.5518 6 4.99952 6V8C6.65637 8 7.99952 6.65685 7.99952 5H5.99952ZM4.99952 6C4.44723 6 3.99952 5.55228 3.99952 5H1.99952C1.99952 6.65685 3.34266 8 4.99952 8V6ZM3.99952 5C3.99952 4.44772 4.44723 4 4.99952 4V2C3.34266 2 1.99952 3.34315 1.99952 5H3.99952ZM4.99952 4C5.5518 4 5.99952 4.44772 5.99952 5H7.99952C7.99952 3.34315 6.65637 2 4.99952 2V4ZM11.3443 8.76274L9.14019 13.7219L10.9678 14.5342L13.1719 9.57502L11.3443 8.76274ZM18.6548 8.76274C17.2471 5.59548 12.7519 5.59548 11.3443 8.76274L13.1719 9.57502C13.8757 7.99139 16.1233 7.99139 16.8271 9.57502L18.6548 8.76274ZM22.0385 16.3761L18.6548 8.76274L16.8271 9.57502L20.2108 17.1884L22.0385 16.3761ZM18.3832 22.0007C21.2779 22.0007 23.2141 19.0212 22.0385 16.3761L20.2108 17.1884C20.7987 18.5109 19.8305 20.0007 18.3832 20.0007V22.0007ZM1.87255 16.4252C0.741347 19.0647 2.67747 22.0009 5.54913 22.0009V20.0009C4.1133 20.0009 3.14524 18.5328 3.71084 17.2131L1.87255 16.4252ZM3.32293 13.041L1.87255 16.4252L3.71084 17.2131L5.16122 13.8288L3.32293 13.041ZM10.6761 13.041C9.29076 9.80857 4.70826 9.80858 3.32293 13.041L5.16122 13.8288C5.85389 12.2126 8.14514 12.2126 8.8378 13.8288L10.6761 13.041ZM10.9731 13.7341L10.6761 13.041L8.8378 13.8288L9.13485 14.522L10.9731 13.7341ZM5.54915 22.0009L18.3832 22.0007L18.3832 20.0007L5.54911 20.0009L5.54915 22.0009Z" fill="currentColor"/>
</svg>
