<svg width="24" height="24" viewBox="0 0 24 24" fill="none" xmlns="http://www.w3.org/2000/svg">
<path d="M18.5005 16V21M16.0005 18.5H21.0005M12.0005 21.0013H5.55011C3.39636 21.0013 1.94427 18.7992 2.79267 16.8196L4.24305 13.4353C5.28205 11.011 8.71893 11.011 9.75792 13.4353L10.055 14.1284L12.259 9.16928C13.3148 6.79383 16.6862 6.79383 17.7419 9.16928L19 12M7.00049 5C7.00049 6.10457 6.10506 7 5.00049 7C3.89592 7 3.00049 6.10457 3.00049 5C3.00049 3.89543 3.89592 3 5.00049 3C6.10506 3 7.00049 3.89543 7.00049 5Z" stroke="currentColor" stroke-width="2" stroke-linecap="round" stroke-linejoin="round"/>
</svg>
