<svg width="24" height="24" viewBox="0 0 24 24" fill="none" xmlns="http://www.w3.org/2000/svg">
<path d="M12 16V12.0001M12 8.00995V8M21 9.59785V14.4022C21 14.8913 21 15.1359 20.9447 15.3661C20.8957 15.5702 20.8149 15.7653 20.7053 15.9442C20.5816 16.146 20.4086 16.319 20.0627 16.6649L16.6649 20.0627C16.319 20.4086 16.146 20.5816 15.9442 20.7053C15.7653 20.8149 15.5702 20.8957 15.3661 20.9447C15.1359 21 14.8913 21 14.4022 21H9.59785C9.10867 21 8.86407 21 8.6339 20.9447C8.42983 20.8957 8.23474 20.8149 8.05579 20.7053C7.85396 20.5816 7.68101 20.4086 7.33511 20.0627L3.93726 16.6649C3.59135 16.319 3.4184 16.146 3.29472 15.9442C3.18506 15.7653 3.10425 15.5702 3.05526 15.3661C3 15.1359 3 14.8913 3 14.4022V9.59785C3 9.10867 3 8.86407 3.05526 8.6339C3.10425 8.42983 3.18506 8.23474 3.29472 8.05579C3.4184 7.85396 3.59135 7.68101 3.93726 7.33511L7.3351 3.93726C7.68101 3.59135 7.85396 3.4184 8.05579 3.29472C8.23474 3.18506 8.42983 3.10425 8.6339 3.05526C8.86407 3 9.10867 3 9.59785 3H14.4022C14.8913 3 15.1359 3 15.3661 3.05526C15.5702 3.10425 15.7653 3.18506 15.9442 3.29472C16.146 3.4184 16.319 3.59135 16.6649 3.93726L20.0627 7.3351C20.4086 7.68101 20.5816 7.85396 20.7053 8.05579C20.8149 8.23474 20.8957 8.42983 20.9447 8.6339C21 8.86407 21 9.10867 21 9.59785Z" stroke="currentColor" stroke-width="2" stroke-linecap="round" stroke-linejoin="round"/>
</svg>
