<svg width="24" height="24" viewBox="0 0 24 24" fill="none" xmlns="http://www.w3.org/2000/svg">
<path d="M11 16C11 16.5523 11.4477 17 12 17C12.5523 17 13 16.5523 13 16H11ZM13 12.0001C13 11.4478 12.5523 11.0001 12 11.0001C11.4477 11.0001 11 11.4478 11 12.0001H13ZM11 8.00995C11 8.56224 11.4477 9.00995 12 9.00995C12.5523 9.00995 13 8.56224 13 8.00995H11ZM13 8.00001C13 7.44772 12.5523 7.00001 12 7.00001C11.4477 7.00001 11 7.44772 11 8.00001H13ZM10.5431 2.80941L11.0287 3.68357V3.68357L10.5431 2.80941ZM4.54307 6.14275L5.02872 7.0169V7.0169L4.54307 6.14275ZM4.54307 17.8573L4.05743 18.7314H4.05743L4.54307 17.8573ZM10.5431 21.1906L11.0287 20.3164H11.0287L10.5431 21.1906ZM13.4569 21.1906L13.9426 22.0648V22.0648L13.4569 21.1906ZM19.4569 17.8573L19.9426 18.7314V18.7314L19.4569 17.8573ZM19.4569 6.14275L18.9713 7.0169L18.9713 7.0169L19.4569 6.14275ZM13.4569 2.80941L13.9426 1.93526L13.9426 1.93526L13.4569 2.80941ZM13 16V12.0001H11V16H13ZM13 8.00995V8.00001H11V8.00995H13ZM10.0574 1.93526L4.05743 5.26859L5.02872 7.0169L11.0287 3.68357L10.0574 1.93526ZM2 8.76522V15.2348H4V8.76522H2ZM4.05743 18.7314L10.0574 22.0648L11.0287 20.3164L5.02871 16.9831L4.05743 18.7314ZM13.9426 22.0648L19.9426 18.7314L18.9713 16.9831L12.9713 20.3164L13.9426 22.0648ZM22 15.2348V8.76522H20V15.2348H22ZM19.9426 5.26859L13.9426 1.93526L12.9713 3.68357L18.9713 7.0169L19.9426 5.26859ZM22 8.76522C22 7.31255 21.2124 5.97407 19.9426 5.26859L18.9713 7.0169C19.6062 7.36964 20 8.03888 20 8.76522H22ZM19.9426 18.7314C21.2124 18.0259 22 16.6875 22 15.2348H20C20 15.9611 19.6062 16.6304 18.9713 16.9831L19.9426 18.7314ZM10.0574 22.0648C11.2655 22.7359 12.7345 22.7359 13.9426 22.0648L12.9713 20.3164C12.3672 20.652 11.6328 20.652 11.0287 20.3164L10.0574 22.0648ZM2 15.2348C2 16.6875 2.78757 18.0259 4.05743 18.7314L5.02871 16.9831C4.39378 16.6304 4 15.9611 4 15.2348H2ZM4.05743 5.26859C2.78757 5.97407 2 7.31255 2 8.76522H4C4 8.03888 4.39378 7.36964 5.02872 7.0169L4.05743 5.26859ZM11.0287 3.68357C11.6328 3.34799 12.3672 3.34799 12.9713 3.68357L13.9426 1.93526C12.7345 1.2641 11.2655 1.26409 10.0574 1.93526L11.0287 3.68357Z" fill="currentColor"/>
</svg>
