<svg width="24" height="24" viewBox="0 0 24 24" fill="none" xmlns="http://www.w3.org/2000/svg">
<path d="M3 3L21 21M5.0571 10.7141C4.75681 10.9694 4.50797 11.2828 4.32698 11.638C4 12.2798 4 13.1198 4 14.8V17.2C4 18.8802 4 19.7202 4.32698 20.362C4.6146 20.9265 5.07354 21.3854 5.63803 21.673C6.27976 22 7.11984 22 8.8 22H15.2C15.6307 22 16.0063 22 16.3374 21.9945M9.9998 10H15.2C16.8802 10 17.7202 10 18.362 10.327C18.9265 10.6146 19.3854 11.0735 19.673 11.638C20 12.2798 20 13.1198 20 14.8V17.2C20 18.4769 20 19.2686 19.8565 19.8567L9.9998 10ZM9.9998 10H16V6C16 3.79086 14.2091 2 12 2C9.79086 2 8 3.79086 8 6V8.00016L9.9998 10Z" stroke="currentColor" stroke-width="2" stroke-linecap="round" stroke-linejoin="round"/>
</svg>
