<svg width="24" height="24" viewBox="0 0 24 24" fill="none" xmlns="http://www.w3.org/2000/svg">
<path d="M13.3414 3.00004C13.23 3 13.1162 3 13 3H11C8.19974 3 6.79961 3 5.73005 3.54497C4.78924 4.02433 4.02433 4.78924 3.54497 5.73005C3 6.79961 3 8.19974 3 11V13C3 15.8003 3 17.2004 3.54497 18.27C4.02433 19.2108 4.78924 19.9757 5.73005 20.455C6.79961 21 8.19974 21 11 21H13C15.8003 21 17.2004 21 18.27 20.455C19.2108 19.9757 19.9757 19.2108 20.455 18.27C21 17.2004 21 15.8003 21 13V11C21 10.8838 21 10.77 21 10.6586M21 5C21 6.10457 20.1046 7 19 7C17.8954 7 17 6.10457 17 5C17 3.89543 17.8954 3 19 3C20.1046 3 21 3.89543 21 5Z" stroke="currentColor" stroke-width="2" stroke-linecap="round" stroke-linejoin="round"/>
</svg>
