<svg width="24" height="24" viewBox="0 0 24 24" fill="none" xmlns="http://www.w3.org/2000/svg">
<path d="M12 21.282C12.8366 21.282 13.6732 21.0723 14.4282 20.6528L18.4282 18.4306C20.0155 17.5487 21 15.8756 21 14.0598V9.94383C21 9.1706 20.8215 8.42326 20.4939 7.75187L12 11.9988M12 21.282V11.9988M12 21.282C11.1634 21.282 10.3268 21.0725 9.57178 20.653L5.57178 18.4308C3.98446 17.549 3 15.8759 3 14.06V9.94405C3 9.17077 3.17853 8.42338 3.50612 7.75196L12 11.9988M7.5 14.0001V9.5001L16.5 4.5001M20.4946 7.75275L12.0001 12L3.50538 7.75265C3.947 6.84678 4.6599 6.07909 5.57175 5.5725L9.57175 3.35028C11.0819 2.51133 12.9181 2.51133 14.4282 3.35028L18.4282 5.5725C19.3401 6.07911 20.053 6.84684 20.4946 7.75275Z" stroke="currentColor" stroke-width="2" stroke-linecap="round" stroke-linejoin="round"/>
</svg>
