<svg width="24" height="24" viewBox="0 0 24 24" fill="none" xmlns="http://www.w3.org/2000/svg">
<path d="M9.10305 3.95004C7.83633 2.68332 5.78256 2.68332 4.51584 3.95004L4.03689 4.42899C3.39533 5.07055 2.97047 5.91596 3.0016 6.82273C3.11338 10.0781 4.66127 13.6302 7.51554 16.4845C10.3698 19.3387 13.9219 20.8866 17.1773 20.9984C18.084 21.0295 18.9294 20.6047 19.571 19.9631L20.05 19.4842C21.3167 18.2174 21.3167 16.1637 20.05 14.897L19.8609 14.7079C18.8488 13.6958 17.2533 13.5637 16.0886 14.3957C15.4434 14.8565 14.6284 15.0628 13.8846 14.7881C12.8685 14.4129 11.8911 13.7991 11.046 12.954C10.2009 12.1089 9.58715 11.1315 9.2119 10.1154C8.93725 9.37158 9.14348 8.55657 9.60432 7.91139C10.4363 6.74668 10.3042 5.15121 9.29212 4.13911L9.10305 3.95004Z" stroke="currentColor" stroke-width="2" stroke-linecap="round" stroke-linejoin="round"/>
</svg>
