<svg width="24" height="24" viewBox="0 0 24 24" fill="none" xmlns="http://www.w3.org/2000/svg">
<path d="M11 8L11 14M8 11L14 11M19 11C19 15.4183 15.4183 19 11 19C6.58172 19 3 15.4183 3 11C3 6.58172 6.58172 3 11 3C15.4183 3 19 6.58172 19 11ZM15.0625 17.891L17.5842 20.4127C18.3652 21.1937 19.6315 21.1937 20.4126 20.4127C21.1936 19.6316 21.1936 18.3653 20.4126 17.5842L17.8909 15.0625C17.2026 16.2274 16.2274 17.2026 15.0625 17.891Z" stroke="currentColor" stroke-width="2" stroke-linecap="round" stroke-linejoin="round"/>
</svg>
