<svg width="24" height="24" viewBox="0 0 24 24" fill="none" xmlns="http://www.w3.org/2000/svg">
<path d="M18 3L21 6L18 9M20.7891 6L17.957 6C17.0675 6 16.6228 6 16.2503 6.05645C14.0843 6.38471 12.3842 8.08478 12.056 10.2508C11.9995 10.6233 11.9995 11.068 11.9995 11.9575V12M12.8048 3.0355C12.5397 3.012 12.2713 3 12 3C7.02944 3 3 7.02944 3 12C3 16.9706 7.02944 21 12 21C16.9706 21 21 16.9706 21 12C21 11.7536 20.9901 11.5096 20.9707 11.2682" stroke="currentColor" stroke-width="2" stroke-linecap="round" stroke-linejoin="round"/>
</svg>
