<svg width="24" height="24" viewBox="0 0 24 24" fill="none" xmlns="http://www.w3.org/2000/svg">
<path d="M9.67278 3.00278C7.72745 3.01615 6.61547 3.09382 5.73005 3.54496C4.78924 4.02433 4.02433 4.78923 3.54497 5.73004C3 6.7996 3 8.19973 3 11V13C3 15.8003 3 17.2004 3.54497 18.2699C4.02433 19.2108 4.78924 19.9757 5.73005 20.455C6.79961 21 8.19974 21 11 21H13C15.8003 21 17.2004 21 18.27 20.455C19.2108 19.9757 19.9757 19.2108 20.455 18.2699C20.9483 17.3019 20.9951 16.063 20.9995 13.7602M17.5036 11.1029C18.0286 10.9658 18.6683 10.3261 19.9478 9.04658C20.5401 8.45429 20.8363 8.15814 20.9858 7.83401C21.2309 7.30246 21.2309 6.69019 20.9858 6.15865C20.8363 5.83452 20.5401 5.53836 19.9478 4.94606C18.6683 3.6666 18.0286 3.02686 17.5036 2.88971C16.6368 2.66323 15.7251 3.04087 15.2723 3.81395C15.1213 4.0717 15.0535 4.46174 15.023 5.06218C11.6197 5.53768 9.00045 8.4602 9.00045 11.9945C9.00045 12.1061 9.00306 12.2172 9.00823 12.3275C10.4666 10.5304 12.6038 9.30644 15.0295 9.04624C15.0628 9.58165 15.1313 9.93791 15.2723 10.1787C15.7251 10.9518 16.6368 11.3294 17.5036 11.1029Z" stroke="currentColor" stroke-width="2" stroke-linecap="round" stroke-linejoin="round"/>
</svg>
