<svg width="24" height="24" viewBox="0 0 24 24" fill="none" xmlns="http://www.w3.org/2000/svg">
<path d="M19.3124 7.53054L20.5769 8.75485C21.3627 9.51567 21.7557 9.8961 21.9029 10.3348C22.0324 10.7206 22.0324 11.1363 21.9029 11.5221C21.7557 11.9608 21.3627 12.3412 20.5769 13.102L19.3124 14.3264C17.6123 15.9724 16.7622 16.7953 16.0324 16.851C15.3992 16.8992 14.7803 16.651 14.3678 16.1834C14.0225 15.7919 13.928 15.0707 13.9021 13.8133C13.8984 13.8133 13.8947 13.8133 13.8909 13.8133C9.15779 13.8133 4.90845 15.8188 2 19C2.31047 12.9017 7.51571 8.04969 13.8914 8.04969C13.895 8.04969 13.8985 8.04969 13.902 8.04969C13.9277 6.78848 14.0219 6.0656 14.3678 5.67349C14.7803 5.20585 15.3992 4.95768 16.0324 5.00593C16.7622 5.06154 17.6123 5.88454 19.3124 7.53054Z" stroke="currentColor" stroke-width="2" stroke-linecap="round" stroke-linejoin="round"/>
</svg>
