<svg width="24" height="24" viewBox="0 0 24 24" fill="none" xmlns="http://www.w3.org/2000/svg">
<path d="M18 3L21 6L18 9M20.7896 6L17.9575 6C17.068 6 16.6233 6 16.2508 6.05645C14.0848 6.38471 12.3847 8.08478 12.0564 10.2508C12 10.6233 12 11.068 12 11.9575V12M12.8435 3.01524C12.8433 3.01016 12.8432 3.00508 12.8431 3H11C8.19974 3 6.79961 3 5.73005 3.54497C4.78924 4.02433 4.02433 4.78924 3.54497 5.73005C3 6.79961 3 8.19974 3 11V13C3 15.8003 3 17.2004 3.54497 18.27C4.02433 19.2108 4.78924 19.9757 5.73005 20.455C6.79961 21 8.19974 21 11 21H13C15.8003 21 17.2004 21 18.27 20.455C19.2108 19.9757 19.9757 19.2108 20.455 18.27C21 17.2004 21 15.8003 21 13V11.2389" stroke="currentColor" stroke-width="2" stroke-linecap="round" stroke-linejoin="round"/>
</svg>
