<svg width="24" height="24" viewBox="0 0 24 24" fill="none" xmlns="http://www.w3.org/2000/svg">
<path d="M12.0009 3.29999C11.6253 3.29983 11.2497 3.40176 10.9174 3.60579C10.409 3.9179 10.0086 4.72839 9.20779 6.34937C8.97106 6.82855 8.85269 7.06815 8.68886 7.26161C8.47377 7.51559 8.20059 7.71395 7.8925 7.83985C7.65783 7.93574 7.39311 7.97416 6.86367 8.051C5.07725 8.31026 4.18404 8.43989 3.73083 8.8243C3.13333 9.3311 2.8733 10.1319 3.05909 10.8931C3.20001 11.4704 3.84575 12.0991 5.13724 13.3566C5.51959 13.7289 5.71076 13.915 5.84422 14.1302C6.02026 14.4139 6.125 14.7361 6.14952 15.0691C6.1681 15.3216 6.12295 15.5846 6.03265 16.1106C5.72761 17.8877 5.57508 18.7762 5.80101 19.3263C6.09819 20.0499 6.77799 20.544 7.55796 20.6035C8.15094 20.6486 8.95072 20.2285 10.5503 19.3883C11.0252 19.1389 11.2626 19.0141 11.5094 18.9539C11.6708 18.9145 11.8359 18.8948 12.0009 18.8949V3.29999Z" stroke="currentColor" stroke-width="2" stroke-linecap="round" stroke-linejoin="round"/>
</svg>
