<svg width="24" height="24" viewBox="0 0 24 24" fill="none" xmlns="http://www.w3.org/2000/svg">
<path d="M9.20778 6.34937C10.0086 4.72839 10.409 3.9179 10.9174 3.60579C11.5815 3.19805 12.4185 3.19805 13.0826 3.60579C13.591 3.9179 13.9914 4.72839 14.7922 6.34937C15.0289 6.82856 15.1473 7.06815 15.3111 7.26161C15.5262 7.51559 15.7994 7.71395 16.1075 7.83985C16.3422 7.93574 16.6069 7.97416 17.1363 8.051C18.9228 8.31026 19.816 8.43989 20.2692 8.8243C20.8667 9.3311 21.1267 10.1319 20.9409 10.8931C20.8 11.4704 20.1542 12.0991 18.8628 13.3566C18.4804 13.7289 18.2892 13.915 18.1558 14.1302C17.9797 14.4139 17.875 14.7361 17.8505 15.0691C17.8319 15.3216 17.877 15.5846 17.9673 16.1106C18.2724 17.8877 18.4249 18.7762 18.199 19.3263C17.9018 20.0499 17.222 20.544 16.442 20.6035C15.8491 20.6486 15.0493 20.2285 13.4497 19.3883C12.9748 19.1389 12.7374 19.0141 12.4906 18.9539C12.1683 18.8752 11.8317 18.8752 11.5094 18.9539C11.2626 19.0141 11.0252 19.1389 10.5503 19.3883C8.95072 20.2285 8.15094 20.6486 7.55796 20.6035C6.77799 20.544 6.09819 20.0499 5.80101 19.3263C5.57508 18.7762 5.72761 17.8877 6.03265 16.1106C6.12295 15.5846 6.1681 15.3216 6.14952 15.0691C6.125 14.7361 6.02026 14.4139 5.84422 14.1302C5.71076 13.915 5.51959 13.7289 5.13724 13.3566C3.84575 12.0991 3.20001 11.4704 3.05909 10.8931C2.8733 10.1319 3.13333 9.3311 3.73083 8.8243C4.18404 8.43989 5.07725 8.31026 6.86367 8.051C7.39311 7.97416 7.65783 7.93574 7.8925 7.83985C8.20059 7.71395 8.47377 7.51559 8.68886 7.26161C8.85269 7.06815 8.97106 6.82856 9.20778 6.34937Z" stroke="currentColor" stroke-width="2" stroke-linecap="round" stroke-linejoin="round"/>
</svg>
