<svg width="24" height="24" viewBox="0 0 24 24" fill="none" xmlns="http://www.w3.org/2000/svg">
<path d="M12 6C9.47182 6 7.08972 6.41698 5 7.1534V15C5 16.8613 5 17.7919 5.24472 18.5451C5.73931 20.0673 6.93272 21.2607 8.45492 21.7553C9.20808 22 10.1387 22 12 22C13.8613 22 14.7919 22 15.5451 21.7553C17.0673 21.2607 18.2607 20.0673 18.7553 18.5451C19 17.7919 19 16.8613 19 15V7.1534C16.9103 6.41698 14.5282 6 12 6ZM12 6C10.6148 6 9.27344 6.12518 8 6.35949V6C8 5.07003 8 4.60504 8.10222 4.22354C8.37962 3.18827 9.18827 2.37962 10.2235 2.10222C10.605 2 11.07 2 12 2C12.93 2 13.395 2 13.7765 2.10222C14.8117 2.37962 15.6204 3.18827 15.8978 4.22354C16 4.60504 16 5.07003 16 6V6.35949C14.7266 6.12518 13.3852 6 12 6ZM12 6C15.3775 6 18.4942 6.74418 21.0015 8M12 6C8.62318 6 5.50698 6.74389 3 7.99927M9 13.3333C9 13.3333 9.66833 12.4227 10.2113 11.8794C10.7542 11.3361 11.5045 11 12.3333 11C13.9902 11 15.3333 12.3431 15.3333 14C15.3333 15.6569 13.9902 17 12.3333 17C11.8544 17 11.4017 16.8878 11 16.6882M9 13.3333V11M9 13.3333H11" stroke="currentColor" stroke-width="2" stroke-linecap="round" stroke-linejoin="round"/>
</svg>
