<svg width="24" height="24" viewBox="0 0 24 24" fill="none" xmlns="http://www.w3.org/2000/svg">
<path d="M15 3H9M21 7H3M9 13.3333C9 13.3333 9.66833 12.4227 10.2113 11.8794C10.7542 11.3361 11.5045 11 12.3333 11C13.9902 11 15.3333 12.3431 15.3333 14C15.3333 15.6569 13.9902 17 12.3333 17C11.8544 17 11.4017 16.8878 11 16.6882M9 13.3333V11M9 13.3333H11M5.06362 14.1253L5 7H19L18.9364 14.1253C18.9204 15.9128 18.9124 16.8066 18.679 17.532C18.1808 19.0798 16.9611 20.2886 15.4089 20.773C14.6815 21 13.7876 21 12 21C10.2124 21 9.31854 21 8.59111 20.773C7.03895 20.2886 5.81924 19.0798 5.32104 17.532C5.08756 16.8066 5.07958 15.9128 5.06362 14.1253Z" stroke="currentColor" stroke-width="2" stroke-linecap="round" stroke-linejoin="round"/>
</svg>
