<svg width="24" height="24" viewBox="0 0 24 24" fill="none" xmlns="http://www.w3.org/2000/svg">
<path d="M15 17V8.82843C15 8.05733 15 7.67178 15.1049 7.36077C15.3045 6.76904 15.769 6.3045 16.3608 6.1049C16.6718 6 17.0573 6 17.8284 6C18.1659 6 18.3346 6 18.4955 6.0264C18.7995 6.07629 19.0878 6.19574 19.3381 6.37543C19.4705 6.47051 19.5898 6.58982 19.8284 6.82843L21.0627 8.06274C21.4086 8.40864 21.5816 8.5816 21.7053 8.78343C21.8149 8.96237 21.8957 9.15746 21.9447 9.36154C22 9.59171 22 9.8363 22 10.3255V13.8C22 14.9201 22 15.4802 21.782 15.908C21.5903 16.2843 21.2843 16.5903 20.908 16.782C20.4802 17 19.9201 17 18.8 17H15ZM15 17H2M12 14H5.2C4.0799 14 3.51984 14 3.09202 13.782C2.71569 13.5903 2.40973 13.2843 2.21799 12.908C2 12.4802 2 11.9201 2 10.8L2 7.2C2 6.0799 2 5.51984 2.21799 5.09202C2.40973 4.71569 2.71569 4.40973 3.09202 4.21799C3.51984 4 4.0799 4 5.2 4L8.8 4C9.9201 4 10.4802 4 10.908 4.21799C11.2843 4.40973 11.5903 4.71569 11.782 5.09202C12 5.51984 12 6.0799 12 7.2V14ZM3 18.5V17H6V18.5C6 19.3284 5.32843 20 4.5 20C3.67157 20 3 19.3284 3 18.5ZM10 18.5V17H13V18.5C13 19.3284 12.3284 20 11.5 20C10.6716 20 10 19.3284 10 18.5ZM17 18.5V17H20V18.5C20 19.3284 19.3284 20 18.5 20C17.6716 20 17 19.3284 17 18.5Z" stroke="currentColor" stroke-width="2" stroke-linecap="round" stroke-linejoin="round"/>
</svg>
