<svg width="24" height="24" viewBox="0 0 24 24" fill="none" xmlns="http://www.w3.org/2000/svg">
<path d="M7.5 16C6.11929 16 5 17.1193 5 18.5C5 19.8807 6.11929 21 7.5 21C8.88071 21 10 19.8807 10 18.5C10 17.1193 8.88071 16 7.5 16ZM7.5 16C8.70948 16 9.71836 16.8589 9.94999 18H15M7.5 16C6.29957 16 5.29675 16.8461 5.05534 17.9744C4.43768 17.9402 4.00536 17.8602 3.63803 17.673C3.07354 17.3854 2.6146 16.9265 2.32698 16.362C2 15.7202 2 14.8802 2 13.2V7.8C2 6.11984 2 5.27976 2.32698 4.63803C2.6146 4.07354 3.07354 3.6146 3.63803 3.32698C4.27976 3 5.11984 3 6.8 3H10.2C11.8802 3 12.7202 3 13.362 3.32698C13.9265 3.6146 14.3854 4.07354 14.673 4.63803C15 5.27976 15 6.11984 15 7.8V18M15 18V9.82843C15 9.05733 15 8.67178 15.1049 8.36077C15.3045 7.76904 15.769 7.3045 16.3608 7.1049C16.6718 7 17.0573 7 17.8284 7C18.1659 7 18.3346 7 18.4955 7.0264C18.7995 7.07629 19.0878 7.19574 19.3381 7.37543C19.4705 7.47051 19.5898 7.58982 19.8284 7.82843L21.0627 9.06274C21.4086 9.40864 21.5816 9.5816 21.7053 9.78343C21.8149 9.96237 21.8957 10.1575 21.9447 10.3615C22 10.5917 22 10.8363 22 11.3255V14.8C22 15.9201 22 16.4802 21.782 16.908C21.5903 17.2843 21.2843 17.5903 20.908 17.782C20.6598 17.9084 20.3672 17.9615 19.9467 17.9838C19.7088 16.8508 18.7038 16 17.5 16M15 18H15.05C15.2816 16.8589 16.2905 16 17.5 16M17.5 16C16.1193 16 15 17.1193 15 18.5C15 19.8807 16.1193 21 17.5 21C18.8807 21 20 19.8807 20 18.5C20 17.1193 18.8807 16 17.5 16Z" stroke="currentColor" stroke-width="2" stroke-linecap="round" stroke-linejoin="round"/>
</svg>
