<svg width="24" height="24" viewBox="0 0 24 24" fill="none" xmlns="http://www.w3.org/2000/svg">
<path d="M15 6.99995H9C7.13872 6.99995 6.20808 6.99995 5.45491 7.24467C3.93273 7.73926 2.73931 8.93267 2.24472 10.4549M15 6.99995C16.8613 6.99995 17.7919 6.99995 18.5451 7.24467C20.0673 7.73926 21.2607 8.93267 21.7553 10.4549C22 11.208 22 12.1387 22 13.9999C22 15.8612 22 16.7919 21.7553 17.545C21.2607 19.0672 20.0673 20.2606 18.5451 20.7552C17.7919 20.9999 16.8613 20.9999 15 20.9999H9C7.13872 20.9999 6.20808 20.9999 5.45491 20.7552C3.93273 20.2606 2.73931 19.0672 2.24472 17.545C2 16.7919 2 15.8612 2 13.9999C2 12.1387 2 11.208 2.24472 10.4549M15 6.99995C16.3267 6.99995 17.1805 6.99995 17.8343 7.08857C17.735 6.45299 17.5761 5.94744 17.322 5.51057C16.7272 4.48803 15.7891 3.7095 14.6745 3.31333C13.4039 2.86174 11.7778 3.16663 8.52569 3.77641C6.20344 4.21183 5.04231 4.42954 4.17274 5.0257C3.40603 5.55134 2.80104 6.28031 2.4257 7.13075C2 8.0953 2 9.27666 2 11.6394V12C2 12.386 2 12.7453 2.00143 13.0809C2.00793 11.8094 2.04405 11.0725 2.24472 10.4549M22 15.9999H18C16.8954 15.9999 16 15.1045 16 13.9999C16 12.8954 16.8954 11.9999 18 11.9999H22V15.9999Z" stroke="currentColor" stroke-width="2" stroke-linecap="round" stroke-linejoin="round"/>
</svg>
